<svg width="255" height="52" viewBox="0 0 255 52" fill="none" xmlns="http://www.w3.org/2000/svg">
<path d="M254.397 3.39164C254.397 4.07983 254.241 4.67791 253.93 5.18586C253.701 5.56818 253.382 5.88608 252.974 6.13954C252.785 6.2575 252.712 6.50788 252.834 6.69491L254.32 8.96659C254.48 9.21146 254.304 9.53624 254.011 9.53624H252.335C252.211 9.53624 252.095 9.47336 252.027 9.3691L250.451 6.95059C250.383 6.84633 250.267 6.78346 250.142 6.78346H249.014C248.811 6.78346 248.646 6.94829 248.646 7.15162V9.16807C248.646 9.3714 248.481 9.53624 248.278 9.53624H246.458C246.254 9.53624 246.09 9.3714 246.09 9.16807V0.367987C246.09 0.164655 246.254 -0.000179291 246.458 -0.000179291H250.243C251.538 -0.000179291 252.554 0.311147 253.291 0.933799C254.028 1.54007 254.397 2.35935 254.397 3.39164ZM250.071 4.86634C250.645 4.86634 251.087 4.74345 251.399 4.49767C251.726 4.2355 251.89 3.86682 251.89 3.39164C251.89 2.91646 251.726 2.54778 251.399 2.28561C251.087 2.02344 250.645 1.89236 250.071 1.89236H248.989C248.786 1.89236 248.621 2.05719 248.621 2.26052V4.49818C248.621 4.70151 248.786 4.86634 248.989 4.86634H250.071Z" fill="#F8F8F8"/>
<path fill-rule="evenodd" clip-rule="evenodd" d="M0.751405 36.4012C0.226102 36.4012 -0.136868 35.8756 0.0491151 35.3844L13.2595 0.489134C13.37 0.197192 13.6496 0.00407028 13.9617 0.00407028H23.3236C23.6358 0.00407028 23.9154 0.197192 24.0259 0.489134L37.2362 35.3844C37.4222 35.8756 37.0592 36.4012 36.5339 36.4012H28.0163C27.6964 36.4012 27.4117 36.1986 27.3068 35.8964L24.9512 29.1066C24.9502 29.1038 24.9462 29.1045 24.9462 29.1074C24.9462 29.1088 24.945 29.11 24.9436 29.11H12.8673C12.5474 29.11 12.2627 29.3126 12.1578 29.6148L9.97851 35.8964C9.87367 36.1986 9.58892 36.4012 9.26906 36.4012H0.751405ZM22.0847 20.8443C22.254 21.3322 21.8917 21.8414 21.3752 21.8414H15.9101C15.3937 21.8414 15.0314 21.3322 15.2007 20.8443L17.9332 12.9681C18.1667 12.295 19.1186 12.295 19.3521 12.9681L22.0847 20.8443Z" fill="#F8F8F8"/>
<path d="M53.6831 35.6502C53.6831 36.065 53.3469 36.4012 52.9322 36.4012H45.0748C44.6601 36.4012 44.3239 36.065 44.3239 35.6502V8.03442C44.3239 7.6197 43.9877 7.28349 43.573 7.28349H34.1557C33.741 7.28349 33.4048 6.94729 33.4048 6.53256V0.755001C33.4048 0.340274 33.741 0.00407028 34.1557 0.00407028H63.8513C64.2661 0.00407028 64.6023 0.340273 64.6023 0.755V6.53256C64.6023 6.94729 64.2661 7.28349 63.8513 7.28349H54.4341C54.0193 7.28349 53.6831 7.6197 53.6831 8.03442V35.6502Z" fill="#F8F8F8"/>
<path d="M96.4136 29.1217C96.8283 29.1217 97.1645 29.458 97.1645 29.8727V35.6502C97.1645 36.065 96.8283 36.4012 96.4136 36.4012H69.5777C69.163 36.4012 68.8268 36.065 68.8268 35.6502V0.755001C68.8268 0.340273 69.163 0.00407028 69.5777 0.00407028H77.4351C77.8498 0.00407028 78.186 0.340274 78.186 0.755001V28.3708C78.186 28.7855 78.5222 29.1217 78.937 29.1217H96.4136Z" fill="#F8F8F8"/>
<path d="M162.463 36.4094H157.97C157.315 36.4094 156.974 35.6286 157.42 35.148L162.263 29.9239C162.391 29.7851 162.463 29.6027 162.463 29.4134V27.3321C162.463 27.1561 162.525 26.9856 162.638 26.8505L168.404 19.9501C168.854 19.4116 169.732 19.7299 169.732 20.4317V35.6586C169.732 36.0734 169.395 36.4096 168.981 36.4096H162.463L162.463 36.4094Z" fill="#F8F8F8"/>
<path fill-rule="evenodd" clip-rule="evenodd" d="M100.742 36.4012C100.216 36.4012 99.8534 35.8756 100.039 35.3844L113.25 0.489134C113.36 0.197192 113.64 0.00407028 113.952 0.00407028H123.314C123.626 0.00407028 123.906 0.197192 124.016 0.489134L137.227 35.3844C137.413 35.8756 137.05 36.4012 136.524 36.4012H128.007C127.687 36.4012 127.402 36.1986 127.297 35.8964L125.118 29.6148C125.013 29.3126 124.728 29.11 124.408 29.11H112.858C112.538 29.11 112.253 29.3126 112.148 29.6148L109.969 35.8964C109.864 36.1986 109.579 36.4012 109.259 36.4012H100.742ZM122.075 20.8443C122.244 21.3322 121.882 21.8414 121.366 21.8414H115.9C115.384 21.8414 115.022 21.3322 115.191 20.8443L117.924 12.9681C118.157 12.295 119.109 12.295 119.342 12.9681L122.075 20.8443Z" fill="#F8F8F8"/>
<path d="M216.742 36.075C216.742 36.3034 216.557 36.4885 216.329 36.4885H209.732C209.503 36.4885 209.318 36.3034 209.318 36.075V8.02947C209.318 7.80109 209.503 7.61596 209.732 7.61596H216.329C216.557 7.61596 216.742 7.8011 216.742 8.02947V36.075Z" fill="#F8F8F8"/>
<path d="M191.932 26.7007C191.803 27.0714 191.279 27.0714 191.15 26.7007L184.626 7.89396C184.568 7.72755 184.411 7.61598 184.235 7.61598H177.085C176.796 7.61598 176.596 7.90537 176.698 8.1759L187.315 36.2214C187.376 36.3822 187.53 36.4885 187.702 36.4885H195.38C195.552 36.4885 195.706 36.3822 195.767 36.2214L206.384 8.1759C206.487 7.90537 206.287 7.61598 205.997 7.61598H198.847C198.671 7.61598 198.514 7.72755 198.457 7.89396L191.932 26.7007Z" fill="#F8F8F8"/>
<path d="M175.796 30.3016C174.654 30.3016 173.728 31.2271 173.728 32.3687V34.4213C173.728 35.563 174.654 36.4885 175.796 36.4885H179.086C180.227 36.4885 181.153 35.563 181.153 34.4213V32.3687C181.153 31.2271 180.227 30.3016 179.086 30.3016H175.796Z" fill="#F8F8F8"/>
<path fill-rule="evenodd" clip-rule="evenodd" d="M220.929 7.61596C220.701 7.61596 220.516 7.80109 220.516 8.02947V36.075C220.516 36.3034 220.701 36.4885 220.929 36.4885H227.527C227.755 36.4885 227.94 36.3034 227.94 36.075V28.6527C227.94 28.4243 228.125 28.2392 228.354 28.2392H237.839C242.626 28.2392 246.089 23.83 246.089 17.751C246.089 11.7996 242.209 7.61596 237.839 7.61596H220.929ZM234.573 13.3905C237.839 13.3905 238.664 16.1011 238.664 17.751C238.664 19.4009 237.839 22.4647 234.573 22.4647H228.354C228.125 22.4647 227.94 22.2796 227.94 22.0512V13.804C227.94 13.5756 228.125 13.3905 228.354 13.3905H234.573Z" fill="#F8F8F8"/>
<path d="M169.252 0H145.678C145.45 0 145.234 0.104478 145.093 0.283751L140.775 5.73989C140.386 6.23197 140.735 6.958 141.361 6.958H158.083L139.984 28.8658C139.873 29.0007 139.811 29.1705 139.811 29.3459V35.8718C139.811 36.2865 140.146 36.6227 140.559 36.6227H147.74L139.811 51.0978L159.861 30.3484C160.321 29.8722 159.985 29.0745 159.324 29.0745H152.125L169.952 6.97511C170 6.89567 170 6.69229 170 6.69229V0.750931C170 0.336203 169.665 0 169.252 0Z" fill="#FF6901"/>
<path d="M152.125 29.076L146.501 36.1941C149.329 32.7304 152.507 30.3471 155.224 29.076H152.125Z" fill="#AE4700"/>
<path d="M153.444 36.6229H147.74L146.31 39.2287C147.47 38.2436 150.044 36.7818 153.444 36.6229Z" fill="#AE4700"/>
<path d="M169.956 6.94826H158.067L155.812 9.70951C160.476 7.73368 167.184 7.04542 169.956 6.94826Z" fill="#AE4700"/>
</svg>
